#tb 0: 2/25
#media_type 0: video
#codec_id 0: rawvideo
#dimensions 0: 488x488
#sar 0: 0/1
0,          0,          0,        1,   952576, 0x22e300c0
0,          1,          1,        1,   952576, 0x4e7e9a01
0,          2,          2,        1,   952576, 0x01b6a421
0,          3,          3,        1,   952576, 0x26f09b88
0,          4,          4,        1,   952576, 0xbb1404ac
0,          5,          5,        1,   952576, 0x14368b56
0,         11,         11,        1,   952576, 0x1843fad6
0,         12,         12,        1,   952576, 0xc3c4bb73
0,         13,         13,        1,   952576, 0x9d662364
0,         15,         15,        1,   952576, 0xf8218a9a
0,         17,         17,        1,   952576, 0x5828d888
0,         19,         19,        1,   952576, 0x6a718e32
0,         26,         26,        1,   952576, 0x95b7ff21
0,         27,         27,        1,   952576, 0x84662ce1
0,         28,         28,        1,   952576, 0x11974723
0,         37,         37,        1,   952576, 0xd4a644ef
0,         38,         38,        1,   952576, 0x3d29c6a8
0,         39,         39,        1,   952576, 0x3d3a2d40
